# xmcd
#
# Track frame offsets: 
#        150
#        19802
#        39022
#        58105
#        75823
#        92928
#        110342
#        125717
#        146469
#        169628
#        189054
#        209478
#        232229
#        248994
#        267029
#        290067
#        306860
#
# Disc length: 4430 seconds
#
# Revision: 0
# Processed by: cddbd v1.4PL0 Copyright (c) Steve Scherf et al.
# Submitted via: ExactAudioCopy v0.90b4
#
DISCID=e9114c11
DTITLE=Elton John - The one
DYEAR=2002
DGENRE=Other
TTITLE0=El dorado
TTITLE1=Believe
TTITLE2=Written in the stars (feat Leann Rimes)
TTITLE3=Can you feel the love tonight
TTITLE4=Candle in the wind
TTITLE5=Daniel
TTITLE6=Blue eyes
TTITLE7=Live like horses (Duet with Luciano Pavarotti)
TTITLE8=Something about the way you look tonight
TTITLE9=Little Jeanie
TTITLE10=The one
TTITLE11=Sacrifice
TTITLE12=Sorry seems to be the hardest world
TTITLE13=Your song
TTITLE14=Nikita
TTITLE15=The big picture
TTITLE16=Don't let the sun go down on me (duet with George Michael)
EXTD=
EXTT0=
EXTT1=
EXTT2=
EXTT3=
EXTT4=
EXTT5=
EXTT6=
EXTT7=
EXTT8=
EXTT9=
EXTT10=
EXTT11=
EXTT12=
EXTT13=
EXTT14=
EXTT15=
EXTT16=
PLAYORDER=
